<?xml version="1.0" encoding="UTF-8"?>
<svg fill="currentColor" width="170px" height="170px" viewBox="0 0 170 170" version="1.1" xmlns="http://www.w3.org/2000/svg">
    <g stroke="none" stroke-width="1">
        <path d="M140.437912,77.5984751 C144.776387,108.316148 123.532961,136.786547 92.8522079,141.371415 C61.8182286,146.010207 32.9507902,124.470359 28.5624327,93.4008343 C24.1740751,62.3299612 45.9473392,33.6371262 77.0514243,29.4998253 C107.802284,25.4083597 136.099438,46.8808027 140.437912,77.5984751 Z M124.793519,78.0864852 C120.599301,55.7890086 99.0687107,41.1581432 76.7939201,45.466652 C54.6809122,49.7441546 40.1784353,71.0858325 44.3416452,93.2215378 C48.5062033,115.355895 69.772548,129.967887 91.9286979,125.918212 C114.246631,121.837531 128.987737,100.382614 124.793519,78.0864852 Z"/>
        <path d="M66,94 C72.9932628,94.1787171 77.0104085,101.315028 84.799752,101.244916 C90.2702552,101.1968 97.637744,94.5815179 102.74899,95.1259177 C104.433688,97.4519894 104.048575,96.3054505 103.686597,99.8756682 C92.7836929,108.612185 66.4313805,112.039429 66,94 Z"/>
        <path d="M64.9925938,70 C71.633057,70.2947332 79.0069487,72.5539328 76.4979953,80.2954232 L74.5695021,81 C71.329852,79.4947102 72.066012,79.4630865 69.9107978,76.075552 L66.6561241,76.3892594 C64.0474682,78.850851 61.5166623,81.1922723 57.4739286,80.876035 L57,79.3694802 C58.6662619,73.7657544 59.8162557,72.9802208 64.9925938,70 Z"/>
        <path d="M100.436658,70 C106.956708,70.6031493 113.890138,73.1462687 111.52738,81.1974191 L109.564175,81.9283427 C106.158984,79.9691378 106.829515,79.7726678 104.600863,75.8556319 C98.834296,76.7486776 97.8195129,83.3737028 92.2617091,81.742864 C90.7132662,76.1592675 96.3706128,72.2394838 100.436658,70 Z"/>
        <path d="M148.996537,107.306114 C163.253863,105.389197 158.558933,112.812064 159.831403,120.173397 C161.397728,129.23494 165.263664,136.656469 161.19823,146.176841 C154.231996,162.488688 135.663909,160.031343 121.655955,156.085144 C118.232148,155.130031 115.129154,156.119925 111.140553,154.554822 C108.896207,151.569088 109.54727,152.347626 109,148.329192 C112.679919,140.887597 113.913298,140.200022 121.185518,135.867229 C123.111747,141.830672 123.858514,143.292772 126.973639,148.663615 C134.984539,142.978414 138.001263,139.73718 147.942436,142.428621 L149.589637,141.341075 C150.821669,132.27552 148.410176,133.978405 153.144196,124.795132 C148.797039,121.111121 140.422192,118.968135 140.087899,114.761085 C142.070741,111.557307 145.804578,109.450438 148.996537,107.306114 Z"/>
        <path d="M25.8976343,8.09482351 C27.2783142,8.03338856 28.6603294,8.00133554 30.0423446,8 C38.2423013,8.01469097 60.23971,16.0800317 59.9980243,25.941677 C58.0605325,28.3256202 52.0824823,31.528251 49.1715711,33.276476 C47.1032218,26.5920862 46.1818783,24.8865985 42.5485805,19.094351 C42.0932499,19.456283 41.6325781,19.8102017 41.1665653,20.1561072 C36.0097125,24.0131537 31.6460163,26.1526927 25.1378598,24.9226581 C23.5168295,24.6168189 21.8637524,34.6093474 19.6485222,37.7358522 L19.0917103,38.5091313 L17.5815082,40.2146189 L17.8672582,42.59322 C21.4231098,47.6015041 26.9551764,49.2415502 32.5913948,51.0191572 C29.7779591,55.4211051 25.3515047,62.1896341 19.5630643,59.3075335 C9.13051882,54.113609 5.22348847,31.3065509 10.0491917,21.5103472 C13.8720994,13.7508457 18.4988458,10.9154891 25.8976343,8.09482351 Z"/>
        <path d="M134.271498,8.19678873 C147.647829,6.80889245 160.936552,12.7226524 162.825459,27.1990715 C163.583411,33.443283 161.853793,39.7337576 158.006953,44.7209316 C154.590194,49.1516252 144.334609,56.2880557 139.392654,51.2969163 C140.239543,49.0617424 147.03722,47.6645935 151.584934,44.5702457 C152.856594,42.8347144 153.584016,41.5961822 154.651255,39.7271486 C153.564105,37.6307643 148.142954,36.0710332 145.015571,33.3573656 C139.944857,28.9557517 139.034252,18.1248734 131.855608,18.8492231 C126.077383,19.4321396 123.206191,27.5387756 119.980579,31.8359669 L118.876173,31.2675903 C114.755885,20.76452 126.056144,12.0009463 134.271498,8.19678873 Z"/>
        <path d="M154.692604,79.0274942 C160.417489,78.872508 170.814714,79.0950523 169.949169,87.3755556 C167.946929,89.8182445 167.653071,90.2474371 164.856078,91.6873519 C156.582645,92.1032978 156.039008,92.8596836 149.359085,88.1027987 C147.733516,85.0242689 147.808317,86.1860033 148.339932,83.4055239 C150.856424,80.8820302 151.290532,80.3124227 154.692604,79.0274942 Z"/>
        <path d="M33.8372593,128.039847 C38.5587526,127.736233 40.8645358,129.129606 42,133.532015 C40.5253712,140.070568 36.8951032,142.649935 32.0971973,146.977796 C29.3718152,147.13638 28.3248287,146.430205 25.8219815,145.348579 C20.2398412,138.541652 28.8020722,132.009876 33.8372593,128.039847 Z"/>
        <path d="M7.15055028,79.0096984 C12.9605193,78.9131461 22.9183883,79.3717693 20.6771736,88.1982549 C18.4386034,90.6938625 18.0670509,90.872216 14.9200946,92 C9.18681615,91.983908 -2.55476886,91.5252847 0.498307691,82.3742763 C3.22743286,80.1334594 3.62807478,79.7499323 7.15055028,79.0096984 Z"/>
        <path d="M81.5858486,149.084419 C84.7084989,148.953314 85.5393715,148.790427 88.3896497,150.162387 C93.7573068,155.30459 92.7819944,164.925528 87.8201443,169.967085 C75.3529285,170.817277 76.5510908,154.966897 81.5858486,149.084419 Z"/>
        <path d="M82.728117,0 C94.9071815,1.40258462 93.8557999,15.6112 86.6590187,22 C75.3576761,19.7499077 76.3067466,6.29944615 82.728117,0 Z"/>
        <path d="M134.772813,125.223761 C138.396498,124.81681 139.552364,124.715405 142,127.155779 C140.942363,129.54812 137.836731,129.927052 135.456375,132.464827 C133.694992,135.513627 134.114817,136.067347 131.365768,137 L130.13724,135.832517 C129.569399,130.063147 130.697007,129.143837 134.772813,125.223761 Z"/>
        <path d="M39.0427624,31 C40.4411,31.5121589 40.9309892,32.2976532 41.9269178,33.428268 C42.6240678,39.8254221 38.2352528,42.2702559 32.9568312,44 C31.7778671,43.4906021 30.9945827,42.7244345 30,41.9002867 C30.4616264,38.9267283 36.2084035,36.8035468 39.0427624,31 Z"/>
        <path d="M128.474954,30 C128.788177,30.124816 138.154735,38.8090258 140,40.3176715 L139.941025,42.9184573 C131.164219,43.6809204 126.42262,39.0749382 128.474954,30 Z"/>
    </g>
</svg>