<?xml version="1.0" encoding="UTF-8"?>
<svg width="1108px" height="234px" viewBox="0 0 1108 234" version="1.1" xmlns="http://www.w3.org/2000/svg" xmlns:xlink="http://www.w3.org/1999/xlink">
    <title>Group 2</title>
    <g id="Page-1" stroke="none" stroke-width="1" fill="none" fill-rule="evenodd">
        <g id="Group-2" fill-rule="nonzero">
            <g id="Group" transform="translate(107, 17)" fill="#DF635B">
                <path d="M140.437912,77.5984751 C144.776387,108.316148 123.532961,136.786547 92.8522079,141.371415 C61.8182286,146.010207 32.9507902,124.470359 28.5624327,93.4008343 C24.1740751,62.3299612 45.9473392,33.6371262 77.0514243,29.4998253 C107.802284,25.4083597 136.099438,46.8808027 140.437912,77.5984751 Z M124.793519,78.0864852 C120.599301,55.7890086 99.0687107,41.1581432 76.7939201,45.466652 C54.6809122,49.7441546 40.1784353,71.0858325 44.3416452,93.2215378 C48.5062033,115.355895 69.772548,129.967887 91.9286979,125.918212 C114.246631,121.837531 128.987737,100.382614 124.793519,78.0864852 Z" id="Combined-Shape"></path>
                <path d="M66,94 C72.9932628,94.1787171 77.0104085,101.315028 84.799752,101.244916 C90.2702552,101.1968 97.637744,94.5815179 102.74899,95.1259177 C104.433688,97.4519894 104.048575,96.3054505 103.686597,99.8756682 C92.7836929,108.612185 66.4313805,112.039429 66,94 Z" id="Path"></path>
                <path d="M64.9925938,70 C71.633057,70.2947332 79.0069487,72.5539328 76.4979953,80.2954232 L74.5695021,81 C71.329852,79.4947102 72.066012,79.4630865 69.9107978,76.075552 L66.6561241,76.3892594 C64.0474682,78.850851 61.5166623,81.1922723 57.4739286,80.876035 L57,79.3694802 C58.6662619,73.7657544 59.8162557,72.9802208 64.9925938,70 Z" id="Path"></path>
                <path d="M100.436658,70 C106.956708,70.6031493 113.890138,73.1462687 111.52738,81.1974191 L109.564175,81.9283427 C106.158984,79.9691378 106.829515,79.7726678 104.600863,75.8556319 C98.834296,76.7486776 97.8195129,83.3737028 92.2617091,81.742864 C90.7132662,76.1592675 96.3706128,72.2394838 100.436658,70 Z" id="Path"></path>
                <path d="M148.996537,107.306114 C163.253863,105.389197 158.558933,112.812064 159.831403,120.173397 C161.397728,129.23494 165.263664,136.656469 161.19823,146.176841 C154.231996,162.488688 135.663909,160.031343 121.655955,156.085144 C118.232148,155.130031 115.129154,156.119925 111.140553,154.554822 C108.896207,151.569088 109.54727,152.347626 109,148.329192 C112.679919,140.887597 113.913298,140.200022 121.185518,135.867229 C123.111747,141.830672 123.858514,143.292772 126.973639,148.663615 C134.984539,142.978414 138.001263,139.73718 147.942436,142.428621 L149.589637,141.341075 C150.821669,132.27552 148.410176,133.978405 153.144196,124.795132 C148.797039,121.111121 140.422192,118.968135 140.087899,114.761085 C142.070741,111.557307 145.804578,109.450438 148.996537,107.306114 Z" id="Path"></path>
                <path d="M25.8976343,8.09482351 C27.2783142,8.03338856 28.6603294,8.00133554 30.0423446,8 C38.2423013,8.01469097 60.23971,16.0800317 59.9980243,25.941677 C58.0605325,28.3256202 52.0824823,31.528251 49.1715711,33.276476 C47.1032218,26.5920862 46.1818783,24.8865985 42.5485805,19.094351 C42.0932499,19.456283 41.6325781,19.8102017 41.1665653,20.1561072 C36.0097125,24.0131537 31.6460163,26.1526927 25.1378598,24.9226581 C23.5168295,24.6168189 21.8637524,34.6093474 19.6485222,37.7358522 L19.0917103,38.5091313 L17.5815082,40.2146189 L17.8672582,42.59322 C21.4231098,47.6015041 26.9551764,49.2415502 32.5913948,51.0191572 C29.7779591,55.4211051 25.3515047,62.1896341 19.5630643,59.3075335 C9.13051882,54.113609 5.22348847,31.3065509 10.0491917,21.5103472 C13.8720994,13.7508457 18.4988458,10.9154891 25.8976343,8.09482351 Z" id="Path"></path>
                <path d="M134.271498,8.19678873 C147.647829,6.80889245 160.936552,12.7226524 162.825459,27.1990715 C163.583411,33.443283 161.853793,39.7337576 158.006953,44.7209316 C154.590194,49.1516252 144.334609,56.2880557 139.392654,51.2969163 C140.239543,49.0617424 147.03722,47.6645935 151.584934,44.5702457 C152.856594,42.8347144 153.584016,41.5961822 154.651255,39.7271486 C153.564105,37.6307643 148.142954,36.0710332 145.015571,33.3573656 C139.944857,28.9557517 139.034252,18.1248734 131.855608,18.8492231 C126.077383,19.4321396 123.206191,27.5387756 119.980579,31.8359669 L118.876173,31.2675903 C114.755885,20.76452 126.056144,12.0009463 134.271498,8.19678873 Z" id="Path"></path>
                <path d="M154.692604,79.0274942 C160.417489,78.872508 170.814714,79.0950523 169.949169,87.3755556 C167.946929,89.8182445 167.653071,90.2474371 164.856078,91.6873519 C156.582645,92.1032978 156.039008,92.8596836 149.359085,88.1027987 C147.733516,85.0242689 147.808317,86.1860033 148.339932,83.4055239 C150.856424,80.8820302 151.290532,80.3124227 154.692604,79.0274942 Z" id="Path"></path>
                <path d="M33.8372593,128.039847 C38.5587526,127.736233 40.8645358,129.129606 42,133.532015 C40.5253712,140.070568 36.8951032,142.649935 32.0971973,146.977796 C29.3718152,147.13638 28.3248287,146.430205 25.8219815,145.348579 C20.2398412,138.541652 28.8020722,132.009876 33.8372593,128.039847 Z" id="Path"></path>
                <path d="M7.15055028,79.0096984 C12.9605193,78.9131461 22.9183883,79.3717693 20.6771736,88.1982549 C18.4386034,90.6938625 18.0670509,90.872216 14.9200946,92 C9.18681615,91.983908 -2.55476886,91.5252847 0.498307691,82.3742763 C3.22743286,80.1334594 3.62807478,79.7499323 7.15055028,79.0096984 Z" id="Path"></path>
                <path d="M81.5858486,149.084419 C84.7084989,148.953314 85.5393715,148.790427 88.3896497,150.162387 C93.7573068,155.30459 92.7819944,164.925528 87.8201443,169.967085 C75.3529285,170.817277 76.5510908,154.966897 81.5858486,149.084419 Z" id="Path"></path>
                <path d="M82.728117,0 C94.9071815,1.40258462 93.8557999,15.6112 86.6590187,22 C75.3576761,19.7499077 76.3067466,6.29944615 82.728117,0 Z" id="Path"></path>
                <path d="M134.772813,125.223761 C138.396498,124.81681 139.552364,124.715405 142,127.155779 C140.942363,129.54812 137.836731,129.927052 135.456375,132.464827 C133.694992,135.513627 134.114817,136.067347 131.365768,137 L130.13724,135.832517 C129.569399,130.063147 130.697007,129.143837 134.772813,125.223761 Z" id="Path"></path>
                <path d="M39.0427624,31 C40.4411,31.5121589 40.9309892,32.2976532 41.9269178,33.428268 C42.6240678,39.8254221 38.2352528,42.2702559 32.9568312,44 C31.7778671,43.4906021 30.9945827,42.7244345 30,41.9002867 C30.4616264,38.9267283 36.2084035,36.8035468 39.0427624,31 Z" id="Path"></path>
                <path d="M128.474954,30 C128.788177,30.124816 138.154735,38.8090258 140,40.3176715 L139.941025,42.9184573 C131.164219,43.6809204 126.42262,39.0749382 128.474954,30 Z" id="Path"></path>
            </g>
            <path d="M94.6640561,68.3055332 C102.516177,80.2221659 100.726806,96.4329057 98.4602727,112.088375 L98.2361191,113.626295 C96.8483331,123.096988 95.3955396,132.304894 95.9228472,140.167826 C96.8266042,144.818893 98.587245,149.198771 100.443527,153.521754 L100.909149,154.601439 C104.565231,163.051626 108.344818,171.352105 106.530714,181.112293 C96.2317613,236.510554 38.13617,242.445473 5.44876694,195.11952 C10.4846118,158.616869 42.9522368,207.26889 68.7115257,201.678271 C83.5308992,188.175562 83.614932,174.427412 75.4916468,157.093084 C68.4290996,151.887336 61.8070421,152.07433 55.3607546,152.835679 L54.5209096,152.937847 C54.241279,152.972724 53.9619589,153.008292 53.6829276,153.044153 L52.8466781,153.152221 C52.7074403,153.170247 52.5682693,153.188248 52.4291623,153.206173 L51.5952668,153.312429 C46.5962431,153.939808 41.6731524,154.341566 36.6991068,152.208111 C-18.5101105,128.522976 -6.07665644,74.4190795 38.5889946,50.2740826 C55.1737376,48.7772284 84.7250497,53.2217705 94.6640561,68.3055332 Z M69.0484639,80.0622548 C61.3910058,73.8273173 50.9403444,72.27062 41.7981801,76.0032983 C28.3417779,81.4977435 21.6505842,96.6596692 26.6611706,110.303603 C31.6714175,123.949234 46.5850251,131.174211 60.3989383,126.655205 C69.7841965,123.582553 76.7436084,115.633721 78.5457627,105.924819 C80.3482565,96.2155776 76.7059221,86.2971922 69.0484639,80.0622548 Z" id="Combined-Shape" fill="#094067"></path>
            <path d="M292.293458,0 C300.544717,1.17020106 302.105006,2.32198451 308.518358,7.66650525 C313.38569,16.5075214 312.162617,27.4271411 310.743778,37.9156349 L310.585623,39.0791214 C310.321687,41.0148836 310.058524,42.9326733 309.83357,44.816552 C311.043701,46.9639102 312.409758,49.3919665 313.931743,52.1007211 C338.202147,51.5427354 363.960639,54.2797985 383.451536,70.1349826 C400.888262,84.3203025 395.237597,103.52647 388.142911,121.440676 C384.800645,129.875265 379.526239,136.713659 373.729816,143.572518 C355.428711,156.55694 305.667603,159.889165 288.918312,146.12711 C285.237414,126.287239 283.767631,14.9165676 292.293458,0 Z M366.495865,97.7409373 C363.594754,82.5646075 348.942955,72.6097323 333.76399,75.4988261 C318.56802,78.3916609 308.59609,93.0632921 311.504003,108.258667 C314.408514,123.454722 329.090923,133.412658 344.283492,130.491256 C359.459056,127.576655 369.400377,112.917267 366.495865,97.7409373 Z" id="Combined-Shape" fill="#094067"></path>
            <path d="M1094.10954,50 L1099.94585,53.4317848 C1106.99379,72.7710852 1114.738,138.689457 1097.88437,153.830582 C1086.0923,155.778801 1090.10604,155.761831 1077.84637,150.107243 C1010.35337,175.651317 963.621933,93.5369301 1037.70553,51.0969764 C1051.4055,50.3000393 1063.36482,51.840626 1076.52211,55.4903126 C1078.8737,56.1423212 1090.16065,51.1971027 1094.10954,50 Z M1072.44376,84.6792584 C1066.03477,77.1434099 1056.06599,73.6335814 1046.3466,75.4879078 C1031.54375,78.3124418 1021.77311,92.5273498 1024.43783,107.360594 C1027.10255,122.193497 1041.21189,132.117628 1056.07282,129.613536 C1065.82979,127.966916 1073.95035,121.206209 1077.33933,111.910663 C1080.72489,102.614434 1078.85617,92.2151069 1072.44376,84.6792584 Z" id="Combined-Shape" fill="#094067"></path>
            <path d="M788.109542,50 L793.945853,53.4317848 C800.993794,72.7710852 808.737998,138.689457 791.884372,153.830582 C780.092295,155.778801 784.106038,155.761831 771.846374,150.107243 C704.353371,175.651317 657.621933,93.5369301 731.705529,51.0969764 C745.405499,50.3000393 757.364816,51.840626 770.522112,55.4903126 C772.873701,56.1423212 784.160647,51.1971027 788.109542,50 Z M766.443762,84.6792584 C760.034772,77.1434099 750.065991,73.6335814 740.3466,75.4879078 C725.543746,78.3124418 715.773111,92.5273498 718.43783,107.360594 C721.102548,122.193497 735.211892,132.117628 750.072824,129.613536 C759.829794,127.966916 767.950353,121.206209 771.339329,111.910663 C774.724888,102.614434 772.856169,92.2151069 766.443762,84.6792584 Z" id="Combined-Shape" fill="#094067"></path>
            <path d="M955.92201,53.8758144 C973.201728,51.3552333 997.156393,53.7687153 1009.42652,67.8232576 C1007.01649,90.2772359 980.868439,77.3226766 966.516627,77.427047 C950.414841,84.1163079 939.898076,100.583309 945.875741,117.768284 C958.738215,130.131069 983.061829,128.033427 1000.57849,128.040249 C1007.26359,135.090372 1005.9638,132.027474 1007.31436,141.543606 C1002.8565,149.473716 990.126035,153.269936 981.819585,156.735309 C1024.78363,170.221612 1016.18608,197.064607 991.263349,225.674397 C974.460896,235.378123 955.600448,236.432061 937.532058,229.709374 C929.18499,221.199428 930.698023,224.900146 930.075208,213.528539 C946.715187,200.553856 970.801861,210.738504 984.842267,199.540848 C986.612549,190.352153 987.269212,193.646986 982.557485,185.675946 C966.174756,191.552755 967.169905,197.248791 952.88579,194.888517 C940.121477,175.767572 953.796317,162.45522 950.086509,156.121365 C926.287548,115.482365 893.677793,93.4697446 955.92201,53.8758144 Z" id="Path" fill="#094067"></path>
            <path d="M441.120136,50 C460.877567,51.0255276 489.675036,60.3158013 492.863036,82.7583987 C487.1672,97.2552958 475.100813,103.204487 462.534433,108.783513 L461.210063,109.369765 C452.151048,113.371305 442.939915,117.329781 435.761439,124.288527 L439.789818,129.681387 C464.147223,134.598207 470.523222,103.760633 496,124.876777 C481.029671,150.100132 456.855993,164.439157 427.803348,150.630577 C413.972805,144.000011 403.34047,132.153399 398.243753,117.696384 C385.988498,82.2888185 410.24043,60.218213 441.120136,50 Z M435.110496,76 C427.938425,84.5757546 424.528641,85.8802037 423,96 C427.094453,95.5767196 430.134787,95.5787162 433.568297,93.3262121 C441.858886,88.7842667 450.637555,86.2063159 453,78.9859239 C445.685572,77.0498819 442.763868,76.2046521 435.110496,76 Z" id="Combined-Shape" fill="#094067"></path>
            <path d="M619.809181,53.6304371 C703.224176,44.5740571 706.260733,135.795827 677.742319,153.641852 C652.877317,148.883594 687.407499,116.567008 650.713216,78.8648934 C589.521999,64.6303693 613.170334,139.745692 600.011922,154 C578.275493,153.502003 572.6352,127.711905 577.767696,110.283038 C586.410466,80.930216 593.931993,69.1686215 619.809181,53.6304371 Z" id="Path" fill="#094067"></path>
            <path d="M845.809181,53.6304371 C929.224176,44.5740571 932.260733,135.795827 903.742319,153.641852 C878.877317,148.883594 913.407499,116.567008 876.713216,78.8648934 C815.521999,64.6303693 839.170334,139.745692 826.011922,154 C804.275493,153.502003 798.6352,127.711905 803.767696,110.283038 C812.410466,80.930216 819.931993,69.1686215 845.809181,53.6304371 Z" id="Path" fill="#094067"></path>
            <path d="M502.213664,48 C506.612528,48.5517017 515.369558,53.0778308 519.775206,52.6869147 C542.034071,50.713298 582.366605,47.8025024 588,77.786111 C571.835784,95.0085169 563.387387,67.1025426 531.09287,82.1330986 C514.196076,103.876195 539.147846,145.918377 510.339862,157 C491.923644,143.797232 493.616037,66.0069576 502.213664,48 Z" id="Path" fill="#094067"></path>
        </g>
    </g>
</svg>